<svg id="Layer" height="512" viewBox="0 0 24 24" width="512" xmlns="http://www.w3.org/2000/svg"><path id="eye-closed" d="m19.006 13.149 1.619 2.436a.75.75 0 0 1 -1.25.83l-1.559-2.345a9.727 9.727 0 0 1 -2.711 1.245l.623 2.5a.75.75 0 0 1 -1.456.362l-.634-2.554a11.772 11.772 0 0 1 -1.638.127 11.772 11.772 0 0 1 -1.638-.123l-.634 2.554a.75.75 0 1 1 -1.456-.362l.623-2.5a9.727 9.727 0 0 1 -2.711-1.249l-1.559 2.345a.75.75 0 1 1 -1.25-.83l1.619-2.436a10.53 10.53 0 0 1 -2.706-3.912.75.75 0 0 1 1.423-.476 8.729 8.729 0 0 0 2.673 3.63l.016.009c.01.006.015.018.025.025a8.731 8.731 0 0 0 5.575 1.825 8.731 8.731 0 0 0 5.579-1.829c.01-.007.015-.019.025-.025l.012-.005a8.729 8.729 0 0 0 2.673-3.63.75.75 0 0 1 1.423.476 10.53 10.53 0 0 1 -2.706 3.912z" fill="rgb(0,0,0)"/></svg>