<svg id="Layer_1" enable-background="new -223 25 512 512" height="512" viewBox="-223 25 512 512" width="512" xmlns="http://www.w3.org/2000/svg" xmlns:cc="http://creativecommons.org/ns#" xmlns:dc="http://purl.org/dc/elements/1.1/" xmlns:inkscape="http://www.inkscape.org/namespaces/inkscape" xmlns:rdf="http://www.w3.org/1999/02/22-rdf-syntax-ns#" xmlns:sodipodi="http://sodipodi.sourceforge.net/DTD/sodipodi-0.dtd" xmlns:svg="http://www.w3.org/2000/svg"><g><path d="m266.8 262.4c2.8 4.2 6 9 9.6 14.3 3.5 5.3 4.8 10.8 3.7 16.5 0 7.4-5 17.4-15.1 30s-17.4 21.5-22 26.8c-11 12-23.5 23.1-37.5 33.2s-29.1 18.9-45.4 26.3-33.9 13.5-52.9 18.3-39 7.9-60.3 9.3c-24.1 1.4-47 .1-68.8-4s-42.2-10.1-61.4-18.1-36.7-17.5-52.9-28.7c-16.1-11.2-30.4-23.3-42.8-36.4-5-5.7-12.6-14.6-22.8-26.8-10.3-12.2-15.4-22.2-15.4-30 0-4.6 1.9-9.6 5.6-15.1s7-10.2 9.8-14.1c3.5-4.6 6.9-8.8 10.1-12.5s6.7-7.5 10.6-11.4c-4.6-2.5-9.8-8.5-15.7-18.1s-3.6-14.9 6.6-15.9c6-1.1 10.4.9 13 5.8 2.7 5 6.3 8.7 10.9 11.2 6.7-5.7 13.5-11.2 20.5-16.7 6.9-5.5 14.4-10.5 22.6-15.1-3.5-4.6-6.9-11.2-10.1-19.9s-.2-13.4 9-14.1c6-.7 9.8 2 11.4 8s4.2 11 7.7 14.9c8.8-3.5 17.5-7.1 26-10.6s17.5-6.5 27.1-9c-2.1-6-3.4-14-3.7-23.9-.4-9.9 4.3-13.3 13.8-10.1 4.6 1.4 7.3 5.2 8 11.4s1.9 12 3.7 17.3c8.5-1.1 16.9-2.4 25.2-4s17.3-2.2 26.8-1.9c2.1-7.8 2.6-16.6 1.3-26.3-1.2-9.7 2-14.6 9.8-14.6 7.4 0 10.9 4.5 10.4 13.5s-.6 17.8-.3 26.3c8.5 1.1 17.2 2 26 2.9s17.2 2.2 25 4c3.5-4.6 5.4-10.1 5.6-16.5s2.6-10.4 7.2-12.2c9.6-2.8 14.2.3 13.8 9.3s-1.6 16.9-3.7 23.6c8.5 3.5 17.2 6.9 26 10.1s17.5 6.7 26 10.6c3.9-3.5 6.5-8.1 7.7-13.5 1.2-5.5 4.7-8.6 10.4-9.3 9.6-1.1 13.1 3.2 10.6 12.8s-6 16.3-10.6 20.2c6.7 5.7 14.1 11.1 22 16.2 8 5.1 15 11.1 21 17.8 1.8-2.8 7.4-8.1 17-15.7s15.2-5.8 17 5.6c1.1 6-1 10.4-6.1 13-5.1 2.7-9.1 6.3-12 10.9 3.5 3.9 7 7.7 10.4 11.4 3.6 3.7 7 8 10.6 13zm-378 112.6c17.2 10.6 36.2 19.7 57.1 27.1-14.9-13.1-26.7-28.8-35.6-47s-13.3-38.2-13.3-59.8c0-23.7 5.2-45.6 15.7-65.6 10.4-20 24.5-36.2 42.2-48.6-29 7.8-54.5 19.7-76.5 35.6s-40.4 33.5-55.2 52.6c-2.1 3.5-4.8 7.1-8 10.6s-5 7.6-5.3 12.2v1.1 1.9s0 1 0 1.3c0 .7.2 1.5.5 2.4s.9 1.3 1.6 1.3l9 14.9 1.1 1.1c0 .4.3 1.1 1.1 2.1 0 1.1 2.6 4 7.7 8.8s9.1 8.6 12 11.4c13.4 13.7 28.7 26 45.9 36.6zm145.3 36.1c15.9 0 30.9-3.1 44.9-9.3s26.2-14.5 36.7-25c10.4-10.4 18.8-22.8 25-36.9 6.2-14.2 9.3-29.4 9.3-45.7 0-15.9-3.1-31-9.3-45.2s-14.5-26.6-25-37.2-22.7-19-36.7-25.2-29-9.3-44.9-9.3-30.9 3.1-44.9 9.3-26.2 14.6-36.7 25.2-18.7 23-24.7 37.2-9 29.2-9 45.2c0 16.3 3 31.5 9 45.7s14.3 26.5 24.7 36.9c10.4 10.5 22.7 18.8 36.7 25 14 6.2 29 9.3 44.9 9.3zm-1.1-193.9c21.6 0 39.8 7.6 54.5 22.8s21.5 33.3 20.5 54.2c0 21.6-7.4 39.8-22.3 54.7s-32.8 22.3-53.7 22.3-38.8-7.4-53.7-22.3c-14.9-14.8-22.3-33-22.3-54.7 0-2.1.1-4.3.3-6.4s.4-4.1.8-5.8c4.6 6 10.4 10.9 17.3 14.6s14.4 5.6 22.6 5.6c13.5 0 25-4.9 34.5-14.6 9.6-9.7 14.3-21.5 14.3-35.3 0-6.7-1.3-13.1-4-19.1s-6.3-11.3-10.9-15.9h.8c.2-.1.6-.1 1.3-.1zm224.2 80.8c2.8-4.6 2-9.6-2.4-15.1s-8.8-10.7-13-15.7c-15.6-19.8-34.1-37.5-55.5-53.1s-46.1-27.3-74.1-35.1c17.7 12.7 31.8 29 42.2 48.9 10.4 19.8 15.7 41.6 15.7 65.3 0 20.9-4.2 40.5-12.5 58.7s-19.6 33.7-33.7 46.5c16.3-5 31.5-11.3 45.7-19.1s26.9-16.5 38.3-26c2.8-2.1 9.1-8.3 18.9-18.6 9.7-10.3 15.5-16.5 17.3-18.6 1.1-.7 2.5-3 4.3-6.9l5.8-9 1.1-1.1c.7 0 1.1-.1 1.3-.3 0-.2.3-.5.6-.8z"/></g></svg>